<?xml version="1.0" encoding="utf-8"?>
<!-- Generator: Adobe Illustrator 28.1.0, SVG Export Plug-In . SVG Version: 6.00 Build 0)  -->
<svg version="1.1" id="Layer_1" xmlns="http://www.w3.org/2000/svg" xmlns:xlink="http://www.w3.org/1999/xlink" x="0px" y="0px"
	 viewBox="0 0 16 18.5" style="enable-background:new 0 0 16 18.5;" xml:space="preserve">
<style type="text/css">
	.st0{fill:#FFFFFF;}
</style>
<path class="st0" d="M8,5.3C7.3,5.3,6.2,4.5,5,4.5c-1.6,0-3,0.9-3.8,2.3c-1.6,2.8-0.4,7,1.2,9.3c0.8,1.1,1.7,2.4,2.9,2.3
	c1.2,0,1.6-0.8,3-0.8c1.4,0,1.8,0.8,3.1,0.7c1.3,0,2.1-1.1,2.8-2.3c0.9-1.3,1.3-2.6,1.3-2.6c0,0-2.4-0.9-2.5-3.7
	c0-2.3,1.9-3.5,2-3.5c-1.1-1.6-2.8-1.8-3.4-1.8C10,4.4,8.7,5.3,8,5.3z M10.6,2.9c0.6-0.8,1.1-1.9,1-2.9c-0.9,0-2.1,0.6-2.7,1.4
	c-0.6,0.7-1.1,1.8-1,2.9C8.9,4.3,10,3.7,10.6,2.9"/>
</svg>
