<?xml version="1.0" encoding="utf-8"?>
<!-- Generator: Adobe Illustrator 28.1.0, SVG Export Plug-In . SVG Version: 6.00 Build 0)  -->
<svg version="1.1" id="Layer_1" xmlns="http://www.w3.org/2000/svg" xmlns:xlink="http://www.w3.org/1999/xlink" x="0px" y="0px"
	 viewBox="0 0 14 17" style="enable-background:new 0 0 14 17;" xml:space="preserve">
<style type="text/css">
	.st0{fill:#FFFFFF;}
</style>
<path class="st0" d="M12.5,3h-1.8c-0.3-1.9-2-3-3.7-3S3.6,1.1,3.3,3H1.5C0.7,3,0,3.7,0,4.5v11C0,16.3,0.7,17,1.5,17h11
	c0.8,0,1.5-0.7,1.5-1.5v-11C14,3.7,13.3,3,12.5,3z M7,1c1.2,0,2.4,0.8,2.7,2H4.3C4.6,1.8,5.8,1,7,1z M13,15.5c0,0.3-0.2,0.5-0.5,0.5
	h-11C1.2,16,1,15.8,1,15.5v-11C1,4.2,1.2,4,1.5,4h11C12.8,4,13,4.2,13,4.5V15.5z"/>
</svg>
