<?xml version="1.0" encoding="utf-8"?>
<!-- Generator: Adobe Illustrator 28.0.0, SVG Export Plug-In . SVG Version: 6.00 Build 0)  -->
<svg version="1.1" id="Layer_1" xmlns="http://www.w3.org/2000/svg" xmlns:xlink="http://www.w3.org/1999/xlink" x="0px" y="0px"
	 viewBox="0 0 16 5.1" style="enable-background:new 0 0 16 5.1;" xml:space="preserve">
<style type="text/css">
	.st0{display:none;fill:#FFFFFF;}
	.st1{display:none;}
	.st2{display:inline;}
	.st3{fill:#FFFFFF;}
</style>
<path class="st0" d="M8-2.2C7.3-2.2,6.2-3,5-3C3.4-3,2-2.1,1.2-0.7c-1.6,2.8-0.4,7,1.2,9.3C3.1,9.8,4,11,5.2,11c1.2,0,1.6-0.8,3-0.8
	c1.4,0,1.8,0.8,3.1,0.7c1.3,0,2.1-1.1,2.8-2.3c0.9-1.3,1.3-2.6,1.3-2.6c0,0-2.4-0.9-2.5-3.7c0-2.3,1.9-3.5,2-3.5
	C13.9-2.8,12.2-3,11.6-3C10-3.1,8.7-2.2,8-2.2z M10.6-4.5c0.6-0.8,1.1-1.9,1-2.9c-0.9,0-2.1,0.6-2.7,1.4c-0.6,0.7-1.1,1.8-1,2.9
	C8.9-3.1,10-3.8,10.6-4.5"/>
<g class="st1">
	<path class="st2" d="M1.2,2.5L1.2,2.5c0-0.7,0.4-1.2,1-1.2c0.5,0,0.9,0.3,0.9,0.7l0,0H2.8l0,0C2.7,1.9,2.5,1.7,2.2,1.7
		C1.8,1.7,1.5,2,1.5,2.5v0c0,0.5,0.3,0.9,0.7,0.9c0.3,0,0.5-0.2,0.6-0.4l0,0h0.3l0,0C3.1,3.4,2.7,3.7,2.2,3.7
		C1.6,3.7,1.2,3.3,1.2,2.5z"/>
	<path class="st2" d="M3.5,1.4h0.3v2.2H3.5V1.4z"/>
	<path class="st2" d="M4.3,1.4h0.3l1.2,1.7h0V1.4h0.3v2.2H5.8L4.6,2h0v1.7H4.3V1.4z"/>
	<path class="st2" d="M6.5,1.4h1.4v0.3H6.9v0.7h1v0.3h-1v0.7h1.1v0.3H6.5V1.4z"/>
	<path class="st2" d="M8.2,3.1L8.2,3.1l0.4,0l0,0c0,0.2,0.2,0.3,0.5,0.3c0.3,0,0.5-0.1,0.5-0.3v0c0-0.2-0.1-0.3-0.4-0.3l-0.2,0
		C8.5,2.6,8.2,2.4,8.2,2.1v0c0-0.4,0.3-0.7,0.8-0.7c0.5,0,0.8,0.3,0.8,0.6l0,0H9.5l0,0c0-0.2-0.2-0.3-0.5-0.3C8.8,1.7,8.7,1.9,8.7,2
		v0c0,0.2,0.1,0.3,0.4,0.3l0.2,0C9.8,2.5,10,2.7,10,3v0c0,0.4-0.3,0.7-0.9,0.7C8.6,3.7,8.2,3.5,8.2,3.1z"/>
	<path class="st2" d="M10.3,2.9V1.4h0.4v1.4c0,0.3,0.2,0.5,0.5,0.5s0.5-0.2,0.5-0.5V1.4h0.4v1.5c0,0.5-0.4,0.8-0.9,0.8
		C10.6,3.7,10.3,3.4,10.3,2.9z"/>
	<path class="st2" d="M12.5,1.4h0.4v2.2h-0.4V1.4z"/>
	<path class="st2" d="M13.9,1.8h-0.7V1.4h1.7v0.3h-0.7v1.9h-0.4V1.8z"/>
</g>
<g>
	<path class="st3" d="M1.2,2.5L1.2,2.5c0-0.7,0.4-1.2,1-1.2c0.5,0,0.9,0.3,0.9,0.7l0,0H2.9l0,0C2.8,1.9,2.6,1.7,2.3,1.7
		C1.8,1.7,1.6,2,1.6,2.5v0c0,0.5,0.3,0.9,0.7,0.9c0.3,0,0.5-0.2,0.6-0.4l0,0h0.3l0,0C3.1,3.4,2.8,3.7,2.3,3.7
		C1.6,3.7,1.2,3.3,1.2,2.5z"/>
	<path class="st3" d="M3.5,1.4h0.3v2.2H3.5V1.4z"/>
	<path class="st3" d="M4.3,1.4h0.3l1.2,1.7h0V1.4h0.3v2.2H5.8L4.6,2h0v1.7H4.3V1.4z"/>
	<path class="st3" d="M6.5,1.4H8v0.3H6.9v0.7h1v0.3h-1v0.7H8v0.3H6.5V1.4z"/>
	<path class="st3" d="M8.2,3.1L8.2,3.1l0.4,0l0,0c0,0.2,0.2,0.3,0.5,0.3c0.3,0,0.5-0.1,0.5-0.3v0c0-0.2-0.1-0.3-0.4-0.3l-0.2,0
		C8.5,2.6,8.3,2.4,8.3,2.1v0c0-0.4,0.3-0.7,0.8-0.7c0.5,0,0.8,0.3,0.8,0.6l0,0H9.6l0,0c0-0.2-0.2-0.3-0.5-0.3C8.8,1.7,8.7,1.9,8.7,2
		v0c0,0.2,0.1,0.3,0.4,0.3l0.2,0C9.8,2.5,10,2.7,10,3v0c0,0.4-0.3,0.7-0.9,0.7C8.6,3.7,8.3,3.5,8.2,3.1z"/>
	<path class="st3" d="M10.3,2.9V1.4h0.4v1.4c0,0.3,0.2,0.5,0.5,0.5s0.5-0.2,0.5-0.5V1.4h0.4v1.5c0,0.5-0.4,0.8-0.9,0.8
		C10.6,3.7,10.3,3.4,10.3,2.9z"/>
	<path class="st3" d="M12.5,1.4h0.4v2.2h-0.4V1.4z"/>
	<path class="st3" d="M13.9,1.8h-0.7V1.4H15v0.3h-0.7v1.9h-0.4V1.8z"/>
</g>
</svg>
