<?xml version="1.0" encoding="utf-8"?>
<!-- Generator: Adobe Illustrator 28.0.0, SVG Export Plug-In . SVG Version: 6.00 Build 0)  -->
<svg version="1.1" id="Layer_1" xmlns="http://www.w3.org/2000/svg" xmlns:xlink="http://www.w3.org/1999/xlink" x="0px" y="0px"
	 viewBox="0 0 16 44" style="enable-background:new 0 0 16 44;" xml:space="preserve">
<style type="text/css">
	.st0{display:none;fill:#FFFFFF;}
	.st1{font-family:'SFProDisplay-Thin';}
	.st2{font-size:3.1964px;}
	.st3{font-family:'SFProDisplay-Semibold';}
</style>
<path class="st0" d="M8,16.2c-0.7,0-1.9-0.8-3.1-0.8c-1.6,0-3,0.9-3.8,2.3c-1.6,2.8-0.4,7,1.2,9.3c0.8,1.1,1.7,2.4,2.9,2.3
	c1.2,0,1.6-0.8,3-0.8c1.4,0,1.8,0.8,3.1,0.7c1.3,0,2.1-1.1,2.8-2.3c0.9-1.3,1.3-2.6,1.3-2.6c0,0-2.4-0.9-2.5-3.7
	c0-2.3,1.9-3.5,2-3.5c-1.1-1.6-2.8-1.8-3.4-1.8C10,15.3,8.7,16.2,8,16.2z M10.6,13.9c0.6-0.8,1.1-1.9,1-2.9c-0.9,0-2.1,0.6-2.7,1.4
	c-0.6,0.7-1.1,1.8-1,2.9C8.9,15.3,10,14.6,10.6,13.9"/>
<text transform="matrix(1 0 0 1 1.0659 22.0781)"><tspan x="0" y="0" class="st1 st2">CINE</tspan><tspan x="6.4" y="0" class="st3 st2">SUIT</tspan></text>
</svg>
