<?xml version="1.0" encoding="utf-8"?>
<!-- Generator: Adobe Illustrator 28.0.0, SVG Export Plug-In . SVG Version: 6.00 Build 0)  -->
<svg version="1.1" id="Layer_1" xmlns="http://www.w3.org/2000/svg" xmlns:xlink="http://www.w3.org/1999/xlink" x="0px" y="0px"
	 viewBox="0 0 1920 1080" style="enable-background:new 0 0 1920 1080;" xml:space="preserve">
<style type="text/css">
	.st0{display:none;fill:none;}
	.st1{fill:none;}
</style>
<g>
	<path class="st0" d="M1371.2,1100.6c-276.9,0-553.9,0-830.8,0c0-370.7,0-741.3,0-1112c276.9,0,553.9,0,830.8,0
		C1371.2,359.3,1371.2,730,1371.2,1100.6z M644.4,379.3c0,2.6,0,4.5,0,6.4c0,77.1-0.1,154.3-0.1,231.4c0,6.2,0.5,12.4,0.5,18.6
		c-0.1,15.8-0.3,31.6-0.5,47.3c0,3.2,0,6.5-0.6,9.6c-1.6,7.9-8.2,13.2-16.2,13.3c-4.3,0-8.6,0.2-12.9,0.1
		c-10.5-0.1-15.7,6.2-15.2,15.3c0.6,11.6,0.1,23.3,0.2,34.9c0,7.3,4.8,12.4,12.1,12.7c3.7,0.1,7.4-0.1,11.2,0
		c7.5,0.1,14.6,1.8,18.2,8.9c2,3.9,3.1,8.7,3.2,13.1c0.3,30.9,0.1,61.8,0.2,92.6c0,2.4,0.9,4.8,1.7,7.2c1.9,5.8,5.1,11.4,5.6,17.2
		c1.8,22.3,3,44.7,3.9,67.1c0.6,14.4,10.9,29.1,24.8,33.2c2.7,0.8,3.4,1.7,3.2,4.1c-0.2,2.6,1.3,3.2,3.6,3.3
		c11.8,0.2,23.5,0.6,35.3,0.9c1.6,0,3.1,0.1,5.2,0.2c0,4.6,0,8.7,0,12.9c5.3,0.5,10.2,0.9,15.4,1.4c0,5.5,0.1,10.8-0.1,16.2
		c0,0.9-1.7,2.3-2.8,2.5c-3.2,0.5-6.4,0.6-9.8,0.8c-0.1,1.7-0.2,3-0.2,4.3c-0.1,6,0,6.1,6.2,6.2c3.3,0.1,6.6,0,9.8,0
		c27,0.6,53.9,1.9,80.9,1.9c82,0,164.1-0.5,246.1-0.8c31.8-0.1,63.5-0.6,95.3-0.9c1.3,0,2.5-0.2,3.7-0.3c0.6-10.5,0.6-10.5-9.4-10.8
		c-0.7,0-1.6,0.2-2.2-0.2c-0.9-0.6-2.2-1.5-2.2-2.3c-0.2-5.6-0.1-11.2-0.1-16.7c5.6-0.5,10.6-1,16-1.5c0-4.7,0-9,0-13.9
		c12.5,0,24.4,0,36.3,0c6.8,0,6.8,0,7.7-6.3c8.8-3.6,16.5-8.5,21.9-16.3c1.9-2.7,4.2-5.8,4.5-8.9c1.1-10.6,1.4-21.4,2-32.1
		c0.8-13.5,1.3-27,2.3-40.5c0.3-4.5,0.8-9.5,3-13.3c5.4-9.3,5.1-19.3,5.1-29.4c-0.1-25.8,0-51.6,0-77.4c0-1.2,0-2.4,0-3.6
		c0.5-9.2,6.6-17.2,15.2-18.5c5.5-0.9,11.2-0.3,16.9-0.4c7.6-0.2,12-4.5,12.1-12c0.1-12.7,0.1-25.4-0.1-38
		c-0.1-6.9-4.8-11.8-11.6-12.3c-5.3-0.4-10.7-0.6-16.1-0.7c-7.7-0.2-14.1-5-15.7-12.6c-0.9-4.2-0.8-8.6-0.8-12.8
		c-0.1-16.8-0.1-33.6-0.1-50.4c-0.1-61.3-0.1-122.7-0.2-184c0-20.7,0-41.5,0-62.2c0-1.9-0.9-4.6,2.5-4.7c2.8,0,3.3-1.7,3.5-4
		c0.5-8.3,1.1-16.6,1.8-24.9c1.1-13.6,2.5-27.2,3.3-40.8c0.6-9.9,10.2-21.7,20.3-20.4c2.6,0.3,5.4,0.2,8,0
		c6.7-0.5,11.3-4.7,11.3-10.4c0.1-13.7,0-27.5,0-41.2c0-5.8-4-10.6-9.8-11.5c-4.2-0.7-8.6-1.2-12.9-0.8c-7.8,0.8-16.4-8-16-16.3
		c0.4-8.5,0.1-17,0.1-25.5c0-27.3-0.1-54.6,0.1-81.9c0-4.3-3.4-9.4,2.4-12.7c0.2-0.1,0.1-0.8,0.1-1.3c0-8.9,0-17.9,0-27
		c-3.7,0-4.3-1.9-4.3-5c0.2-10.7,0.1-21.5,0.1-32.2c0-2.5,0-5,0-7.9c-18-0.5-35.5-1.2-52.9-1.3c-56.2-0.5-112.5-1.3-168.7-1.1
		c-135.9,0.4-271.8-2.4-407.6,2.5c-3.6,0.1-4.6,1.2-4.5,4.6c0.2,11.8,0.1,23.6,0,35.4c0,1.4-0.8,2.9-1.4,4.3c-0.6,1.4-2.2,2.7-2.2,4
		c-0.2,7.6-0.2,15.2-0.1,22.8c0,1.1,0.8,2.3,1.2,3.4c0.7,1.9,1.8,3.8,2,5.7c0.2,2.5-0.4,5-0.4,7.5c0,17.8,0,35.5,0,53.3
		c0,17.2,0,34.3,0,51.5c0,10.5-6.9,17.2-17.4,17.2c-3.1,0-6.3-0.1-9.4,0.1c-8,0.6-12.6,5.1-12.7,12.7c-0.2,13-0.2,26,0,38.9
		c0.1,6.6,3.9,10.9,10.4,11.9c2.5,0.4,5,0.4,7.5,0.3c10.6-0.5,19.7,6.1,21.5,16.6c1.1,6.1,1.1,12.4,1.6,18.6
		c1.4,16.4,2.9,32.8,4.1,49.2C638.7,377.3,639.2,380,644.4,379.3z"/>
	<path class="st1" d="M644.4,379.3c-5.2,0.7-5.7-2-6-5.8c-1.2-16.4-2.7-32.8-4.1-49.2c-0.5-6.2-0.5-12.5-1.6-18.6
		c-1.8-10.5-10.9-17.1-21.5-16.6c-2.5,0.1-5.1,0.1-7.5-0.3c-6.5-1.1-10.3-5.4-10.4-11.9c-0.2-13-0.2-26,0-38.9
		c0.1-7.6,4.7-12.1,12.7-12.7c3.1-0.2,6.3-0.1,9.4-0.1c10.5,0,17.4-6.7,17.4-17.2c0.1-17.2,0-34.3,0-51.5c0-17.8,0-35.5,0-53.3
		c0-2.5,0.7-5.1,0.4-7.5c-0.2-1.9-1.3-3.8-2-5.7c-0.4-1.1-1.2-2.3-1.2-3.4c-0.1-7.6-0.2-15.2,0.1-22.8c0-1.4,1.6-2.6,2.2-4
		c0.6-1.4,1.4-2.9,1.4-4.3c0.1-11.8,0.2-23.6,0-35.4c0-3.4,0.9-4.5,4.5-4.6c135.8-4.9,271.7-2.1,407.6-2.5
		c56.2-0.2,112.5,0.6,168.7,1.1c17.4,0.2,34.8,0.8,52.9,1.3c0,2.9,0,5.4,0,7.9c0,10.7,0.1,21.5-0.1,32.2c-0.1,3,0.6,4.9,4.3,5
		c0,9.1,0,18.1,0,27c0,0.4,0.1,1.2-0.1,1.3c-5.8,3.3-2.4,8.4-2.4,12.7c-0.2,27.3-0.1,54.6-0.1,81.9c0,8.5,0.3,17-0.1,25.5
		c-0.4,8.4,8.2,17.2,16,16.3c4.2-0.5,8.6,0.1,12.9,0.8c5.8,0.9,9.8,5.7,9.8,11.5c0.1,13.7,0.1,27.5,0,41.2c0,5.7-4.6,9.9-11.3,10.4
		c-2.7,0.2-5.4,0.4-8,0c-10.1-1.3-19.7,10.4-20.3,20.4c-0.8,13.6-2.2,27.2-3.3,40.8c-0.7,8.3-1.3,16.6-1.8,24.9
		c-0.1,2.4-0.6,4-3.5,4c-3.4,0.1-2.5,2.8-2.5,4.7c0,20.7,0,41.5,0,62.2c0.1,61.3,0.1,122.7,0.2,184c0,16.8,0,33.6,0.1,50.4
		c0,4.3,0,8.7,0.8,12.8c1.6,7.6,8,12.4,15.7,12.6c5.4,0.1,10.7,0.3,16.1,0.7c6.7,0.5,11.5,5.5,11.6,12.3c0.2,12.7,0.2,25.4,0.1,38
		c-0.1,7.5-4.5,11.8-12.1,12c-5.6,0.2-11.4-0.4-16.9,0.4c-8.6,1.4-14.7,9.3-15.2,18.5c-0.1,1.2,0,2.4,0,3.6c0,25.8-0.1,51.6,0,77.4
		c0.1,10.1,0.3,20-5.1,29.4c-2.2,3.8-2.7,8.8-3,13.3c-1,13.5-1.6,27-2.3,40.5c-0.6,10.7-0.9,21.4-2,32.1c-0.3,3.1-2.6,6.2-4.5,8.9
		c-5.4,7.8-13.1,12.7-21.9,16.3c-0.9,6.3-0.9,6.3-7.7,6.3c-11.9,0-23.8,0-36.3,0c0,5,0,9.2,0,13.9c-5.5,0.5-10.4,1-16,1.5
		c0,5.5-0.1,11.1,0.1,16.7c0,0.8,1.3,1.7,2.2,2.3c0.5,0.3,1.5,0.1,2.2,0.2c9.9,0.3,9.9,0.3,9.4,10.8c-1.2,0.1-2.5,0.3-3.7,0.3
		c-31.8,0.3-63.5,0.8-95.3,0.9c-82,0.4-164.1,0.8-246.1,0.8c-27,0-53.9-1.2-80.9-1.9c-3.3-0.1-6.6,0-9.8,0c-6.3-0.1-6.3-0.2-6.2-6.2
		c0-1.3,0.1-2.6,0.2-4.3c3.4-0.2,6.6-0.3,9.8-0.8c1.1-0.2,2.7-1.6,2.8-2.5c0.3-5.3,0.1-10.7,0.1-16.2c-5.2-0.5-10.1-0.9-15.4-1.4
		c0-4.2,0-8.3,0-12.9c-2.1-0.1-3.6-0.2-5.2-0.2c-11.8-0.3-23.5-0.7-35.3-0.9c-2.3,0-3.8-0.7-3.6-3.3c0.2-2.5-0.5-3.4-3.2-4.1
		c-13.8-4-24.2-18.7-24.8-33.2c-0.9-22.4-2.1-44.8-3.9-67.1c-0.5-5.9-3.7-11.5-5.6-17.2c-0.8-2.3-1.7-4.8-1.7-7.2
		c-0.1-30.9,0-61.8-0.2-92.6c0-4.4-1.2-9.2-3.2-13.1c-3.7-7.1-10.8-8.8-18.2-8.9c-3.7-0.1-7.4,0.2-11.2,0c-7.2-0.3-12-5.4-12.1-12.7
		c0-11.6,0.5-23.3-0.2-34.9c-0.5-9.1,4.7-15.4,15.2-15.3c4.3,0.1,8.6-0.1,12.9-0.1c8-0.1,14.6-5.3,16.2-13.3
		c0.6-3.1,0.6-6.4,0.6-9.6c0.2-15.8,0.4-31.6,0.5-47.3c0-6.2-0.5-12.4-0.5-18.6c0-77.1,0-154.3,0.1-231.4
		C644.4,383.8,644.4,381.9,644.4,379.3z"/>
</g>
</svg>
