<?xml version="1.0" encoding="utf-8"?>
<!-- Generator: Adobe Illustrator 28.0.0, SVG Export Plug-In . SVG Version: 6.00 Build 0)  -->
<svg version="1.1" id="Layer_1" xmlns="http://www.w3.org/2000/svg" xmlns:xlink="http://www.w3.org/1999/xlink" x="0px" y="0px"
	 viewBox="0 0 1920 1080" style="enable-background:new 0 0 1920 1080;" xml:space="preserve">
<style type="text/css">
	.st0{display:none;fill:#FFFFFF;}
	.st1{fill:#FFFFFF;}
</style>
<g>
	<path class="st0" d="M158.7,1140.9c0-397.5,0-795,0-1192.5c532,0,1064,0,1596,0c0,397.5,0,795,0,1192.5
		C1222.8,1140.9,690.8,1140.9,158.7,1140.9z M1194.1,97.8c-3.7,0-6.5,0-9.2,0c-110.7,0-221.4-0.1-332.1-0.1
		c-8.9,0-17.8,0.7-26.7,0.7c-22.6-0.1-45.3-0.4-67.9-0.7c-4.6-0.1-9.3,0-13.7-0.9c-11.4-2.3-18.9-11.8-19-23.3
		c-0.1-6.2-0.3-12.4-0.2-18.6c0.2-15-8.9-22.5-21.9-21.8c-16.7,0.9-33.4,0.2-50.1,0.2c-10.5,0-17.8,6.9-18.2,17.3
		c-0.2,5.3,0.1,10.7,0,16c-0.2,10.7-2.5,20.9-12.8,26.2c-5.6,2.9-12.5,4.5-18.8,4.6c-44.3,0.4-88.6,0.2-133,0.4
		c-3.4,0-7,1.3-10.3,2.4c-8.3,2.7-16.3,7.3-24.7,8c-32,2.6-64.2,4.3-96.3,5.6c-20.7,0.9-41.8,15.7-47.6,35.5c-1.1,3.8-2.4,4.9-6,4.6
		c-3.7-0.4-4.6,1.8-4.7,5.2c-0.3,16.9-0.8,33.7-1.3,50.6c-0.1,2.3-0.2,4.5-0.3,7.5c-6.6,0-12.5,0-18.6,0c-0.7,7.7-1.3,14.6-2,22.1
		c-7.9,0-15.5,0.2-23.2-0.2c-1.3-0.1-3.3-2.4-3.6-4c-0.8-4.5-0.8-9.2-1.1-14.1c-2.5-0.1-4.3-0.3-6.2-0.3c-8.7-0.1-8.7-0.1-8.9,8.9
		c-0.1,4.7,0,9.4-0.1,14.1c-0.9,38.7-2.7,77.4-2.7,116.1c0,117.8,0.7,235.5,1.2,353.3c0.2,45.6,0.8,91.2,1.3,136.8
		c0,1.8,0.3,3.6,0.4,5.4c15,0.8,15,0.8,15.5-13.5c0-1.1-0.3-2.4,0.2-3.2c0.8-1.3,2.1-3.1,3.2-3.1c8-0.3,16.1-0.1,23.9-0.1
		c0.8,8,1.5,15.1,2.2,23c6.8,0,12.9,0,20,0c0,17.9,0,35,0,52.1c0,9.8,0,9.8,9,11.1c5.2,12.7,12.1,23.7,23.4,31.4
		c3.9,2.7,8.4,6,12.8,6.4c15.3,1.6,30.7,2.1,46,2.9c19.4,1.1,38.8,1.9,58.2,3.3c6.5,0.5,13.7,1.2,19.1,4.4
		c13.4,7.8,27.6,7.4,42.2,7.3c37-0.2,74-0.1,111.1-0.1c1.7,0,3.4-0.1,5.1,0c13.2,0.7,24.6,9.5,26.6,21.8c1.3,7.9,0.4,16.1,0.6,24.2
		c0.3,10.9,6.4,17.3,17.2,17.4c18.2,0.2,36.4,0.2,54.6-0.1c9.8-0.1,16.9-6.9,17.7-16.6c0.6-7.7,0.8-15.4,1-23
		c0.3-11.1,7.1-20.3,18.1-22.5c6-1.2,12.3-1.1,18.4-1.2c24.1-0.2,48.3-0.2,72.4-0.2c88-0.1,176-0.2,264.1-0.3
		c29.8,0,59.5-0.1,89.3,0c2.7,0,6.6-1.2,6.7,3.6c0.1,4.1,2.4,4.8,5.8,5c11.9,0.7,23.8,1.6,35.7,2.6c19.5,1.6,39,3.6,58.5,4.8
		c14.2,0.9,31.1,14.6,29.2,29.1c-0.5,3.8-0.3,7.7,0,11.5c0.7,9.6,6.7,16.1,15,16.2c19.7,0.1,39.4,0.1,59.1-0.1
		c8.3-0.1,15.2-5.8,16.5-14.1c0.9-6.1,1.7-12.4,1.1-18.5c-1.2-11.2,11.4-23.5,23.4-23c12.2,0.6,24.4,0.1,36.6,0.1
		c39.2,0,78.4-0.1,117.6,0.1c6.1,0,13.5-4.8,18.2,3.5c0.2,0.3,1.2,0.2,1.9,0.2c12.8,0,25.6,0,38.8,0c0.1-5.3,2.8-6.2,7.1-6.1
		c15.4,0.3,30.8,0.1,46.3,0.1c3.6,0,7.1,0,11.3,0c0.7-25.9,1.7-50.9,1.9-75.9c0.7-80.7,1.8-161.5,1.6-242.2
		c-0.5-195,3.5-390.1-3.5-585.1c-0.2-5.2-1.7-6.6-6.6-6.5c-16.9,0.2-33.8,0.1-50.8,0c-2.1,0-4.2-1.1-6.2-2c-2-0.9-3.8-3.1-5.8-3.2
		c-10.9-0.3-21.8-0.2-32.8-0.1c-1.6,0-3.3,1.1-4.9,1.7c-2.7,1-5.4,2.6-8.2,2.9c-3.6,0.4-7.2-0.6-10.8-0.6c-25.5-0.1-51,0-76.5,0
		c-24.6,0-49.3,0.1-73.9,0c-15.1-0.1-24.7-9.9-24.7-25c0-4.5,0.2-9-0.2-13.5c-0.9-11.4-7.4-18.1-18.2-18.2
		c-18.6-0.2-37.3-0.2-55.9,0c-9.5,0.1-15.6,5.6-17.1,15c-0.6,3.5-0.6,7.2-0.4,10.8c0.8,15.2-8.8,28.2-23.8,30.8
		c-8.8,1.5-17.8,1.5-26.7,2.3c-23.5,2-47,4.2-70.6,5.9C1196.9,89.5,1193.2,90.3,1194.1,97.8z"/>
	<path class="st1" d="M1194.1,97.8c-0.9-7.4,2.8-8.2,8.4-8.6c23.6-1.7,47.1-3.9,70.6-5.9c8.9-0.8,17.9-0.8,26.7-2.3
		c15-2.6,24.6-15.6,23.8-30.8c-0.2-3.6-0.2-7.3,0.4-10.8c1.6-9.4,7.7-14.8,17.1-15c18.6-0.2,37.3-0.2,55.9,0
		c10.9,0.1,17.3,6.8,18.2,18.2c0.4,4.5,0.2,9,0.2,13.5c-0.1,15,9.6,24.9,24.7,25c24.6,0.1,49.3,0,73.9,0c25.5,0,51,0,76.5,0
		c3.6,0,7.3,0.9,10.8,0.6c2.8-0.3,5.5-1.9,8.2-2.9c1.6-0.6,3.3-1.7,4.9-1.7c10.9-0.2,21.8-0.2,32.8,0.1c2,0.1,3.8,2.3,5.8,3.2
		c2,0.9,4.1,2,6.2,2c16.9,0.2,33.8,0.2,50.8,0c4.9-0.1,6.5,1.3,6.6,6.5c7,195,3,390,3.5,585.1c0.2,80.7-0.9,161.5-1.6,242.2
		c-0.2,25-1.2,50-1.9,75.9c-4.2,0-7.7,0-11.3,0c-15.4,0-30.8,0.2-46.3-0.1c-4.4-0.1-7.1,0.8-7.1,6.1c-13.1,0-26,0-38.8,0
		c-0.6,0-1.7,0.1-1.9-0.2c-4.7-8.3-12.1-3.4-18.2-3.5c-39.2-0.2-78.4-0.1-117.6-0.1c-12.2,0-24.4,0.5-36.6-0.1
		c-12-0.6-24.6,11.8-23.4,23c0.7,6.1-0.2,12.4-1.1,18.5c-1.3,8.3-8.2,14-16.5,14.1c-19.7,0.1-39.4,0.1-59.1,0.1
		c-8.2,0-14.3-6.6-15-16.2c-0.3-3.8-0.5-7.7,0-11.5c1.9-14.5-15-28.2-29.2-29.1c-19.5-1.2-39-3.2-58.5-4.8
		c-11.9-1-23.8-1.9-35.7-2.6c-3.4-0.2-5.7-0.9-5.8-5c-0.1-4.8-4-3.6-6.7-3.6c-29.8-0.1-59.5,0-89.3,0c-88,0.1-176,0.2-264.1,0.3
		c-24.1,0-48.3,0-72.4,0.2c-6.2,0-12.5-0.1-18.4,1.2c-11,2.2-17.8,11.4-18.1,22.5c-0.2,7.7-0.4,15.4-1,23
		c-0.8,9.7-7.8,16.5-17.7,16.6c-18.2,0.3-36.4,0.3-54.6,0.1c-10.8-0.1-16.9-6.5-17.2-17.4c-0.2-8.1,0.6-16.3-0.6-24.2
		c-2-12.3-13.4-21.1-26.6-21.8c-1.7-0.1-3.4,0-5.1,0c-37,0-74-0.1-111.1,0.1c-14.5,0.1-28.8,0.5-42.2-7.3
		c-5.4-3.1-12.6-3.9-19.1-4.4c-19.4-1.5-38.8-2.2-58.2-3.3c-15.4-0.9-30.8-1.3-46-2.9c-4.5-0.5-8.9-3.7-12.8-6.4
		c-11.2-7.7-18.2-18.8-23.4-31.4c-9-1.3-9-1.3-9-11.1c0-17.1,0-34.2,0-52.1c-7.1,0-13.2,0-20,0c-0.8-7.9-1.4-15-2.2-23
		c-7.8,0-15.9-0.1-23.9,0.1c-1.1,0-2.4,1.9-3.2,3.1c-0.5,0.8-0.2,2.1-0.2,3.2c-0.5,14.3-0.5,14.3-15.5,13.5
		c-0.1-1.7-0.4-3.5-0.4-5.4c-0.5-45.6-1.1-91.2-1.3-136.8c-0.5-117.8-1.2-235.5-1.2-353.3c0-38.7,1.7-77.4,2.7-116.1
		c0.1-4.7,0-9.4,0.1-14.1c0.2-9,0.3-9,8.9-8.9c1.9,0,3.8,0.2,6.2,0.3c0.3,4.8,0.4,9.5,1.1,14.1c0.3,1.5,2.3,3.9,3.6,4
		c7.6,0.4,15.3,0.2,23.2,0.2c0.7-7.5,1.3-14.5,2-22.1c6.1,0,12,0,18.6,0c0.1-2.9,0.3-5.2,0.3-7.5c0.4-16.9,0.9-33.7,1.3-50.6
		c0.1-3.4,1-5.5,4.7-5.2c3.5,0.3,4.8-0.8,6-4.6c5.8-19.9,26.9-34.7,47.6-35.5c32.1-1.3,64.2-3,96.3-5.6c8.4-0.7,16.5-5.4,24.7-8
		c3.4-1.1,6.9-2.4,10.3-2.4c44.3-0.2,88.6,0,133-0.4c6.3-0.1,13.2-1.7,18.8-4.6c10.2-5.3,12.6-15.5,12.8-26.2c0.1-5.3-0.2-10.7,0-16
		c0.4-10.4,7.8-17.3,18.2-17.3c16.7,0,33.4,0.7,50.1-0.2c13.1-0.7,22.1,6.8,21.9,21.8c-0.1,6.2,0.1,12.4,0.2,18.6
		c0.1,11.5,7.7,21,19,23.3c4.5,0.9,9.1,0.8,13.7,0.9c22.6,0.3,45.3,0.6,67.9,0.7c8.9,0,17.8-0.7,26.7-0.7c110.7,0,221.4,0,332.1,0.1
		C1187.6,97.8,1190.4,97.8,1194.1,97.8z"/>
</g>
</svg>
