<?xml version="1.0" encoding="utf-8"?>
<!-- Generator: Adobe Illustrator 28.0.0, SVG Export Plug-In . SVG Version: 6.00 Build 0)  -->
<svg version="1.1" id="Layer_1" xmlns="http://www.w3.org/2000/svg" xmlns:xlink="http://www.w3.org/1999/xlink" x="0px" y="0px"
	 viewBox="0 0 1920 1080" style="enable-background:new 0 0 1920 1080;" xml:space="preserve">
<style type="text/css">
	.st0{display:none;fill:#FFFFFF;}
	.st1{fill:#FFFFFF;}
	.st2{display:none;}
	.st3{display:inline;}
</style>
<g>
	<path class="st0" d="M193,1140.9c0-397.5,0-795,0-1192.5c509.2,0,1018.4,0,1527.6,0c0,397.5,0,795,0,1192.5
		C1211.4,1140.9,702.2,1140.9,193,1140.9z M1184,97.8c-3.6,0-6.2,0-8.9,0c-106,0-211.9-0.1-317.9-0.1c-8.5,0-17.1,0.7-25.6,0.7
		c-21.7-0.1-43.4-0.4-65-0.7c-4.4-0.1-8.9,0-13.1-0.9c-10.9-2.3-18.1-11.8-18.2-23.3c-0.1-6.2-0.2-12.4-0.2-18.6
		c0.2-15-8.5-22.5-21-21.8c-15.9,0.9-32,0.2-48,0.2c-10,0-17.1,6.9-17.5,17.3c-0.2,5.3,0.1,10.7,0,16c-0.2,10.7-2.4,20.9-12.2,26.2
		c-5.4,2.9-12,4.5-18,4.6c-42.4,0.4-84.8,0.2-127.3,0.4c-3.3,0-6.7,1.3-9.9,2.4c-7.9,2.7-15.6,7.3-23.7,8
		c-30.7,2.6-61.4,4.3-92.1,5.6c-19.8,0.9-40,15.7-45.6,35.5c-1.1,3.8-2.3,4.9-5.7,4.6c-3.6-0.4-4.4,1.8-4.5,5.2
		c-0.3,16.9-0.8,33.7-1.2,50.6c-0.1,2.3-0.2,4.5-0.3,7.5c-6.3,0-12,0-17.8,0c-0.6,7.7-1.2,14.6-1.9,22.1c-7.5,0-14.9,0.2-22.2-0.2
		c-1.3-0.1-3.2-2.4-3.4-4c-0.7-4.5-0.8-9.2-1.1-14.1c-2.3-0.1-4.2-0.3-6-0.3c-8.3-0.1-8.3-0.1-8.5,8.9c-0.1,4.7,0,9.4-0.1,14.1
		c-0.9,38.7-2.6,77.4-2.5,116.1c0,117.8,0.6,235.5,1.1,353.3c0.2,45.6,0.8,91.2,1.2,136.8c0,1.8,0.3,3.6,0.4,5.4
		c14.4,0.8,14.4,0.8,14.8-13.5c0-1.1-0.3-2.4,0.2-3.2c0.8-1.3,2-3.1,3.1-3.1c7.7-0.3,15.4-0.1,22.9-0.1c0.7,8,1.4,15.1,2.1,23
		c6.5,0,12.3,0,19.1,0c0,17.9,0,35,0,52.1c0,9.8,0,9.8,8.6,11.1c5,12.7,11.6,23.7,22.4,31.4c3.8,2.7,8,6,12.3,6.4
		c14.6,1.6,29.4,2.1,44.1,2.9c18.6,1.1,37.1,1.9,55.7,3.3c6.2,0.5,13.1,1.2,18.3,4.4c12.8,7.8,26.5,7.4,40.4,7.3
		c35.4-0.2,70.9-0.1,106.3-0.1c1.6,0,3.3-0.1,4.9,0c12.6,0.7,23.6,9.5,25.5,21.8c1.2,7.9,0.4,16.1,0.6,24.2
		c0.3,10.9,6.1,17.3,16.5,17.4c17.4,0.2,34.8,0.2,52.3-0.1c9.4-0.1,16.2-6.9,16.9-16.6c0.6-7.7,0.8-15.4,1-23
		c0.3-11.1,6.8-20.3,17.3-22.5c5.7-1.2,11.7-1.1,17.6-1.2c23.1-0.2,46.2-0.2,69.3-0.2c84.2-0.1,168.5-0.2,252.7-0.3
		c28.5,0,57-0.1,85.5,0c2.6,0,6.3-1.2,6.4,3.6c0.1,4.1,2.3,4.8,5.6,5c11.4,0.7,22.8,1.6,34.2,2.6c18.7,1.6,37.3,3.6,56,4.8
		c13.6,0.9,29.8,14.6,28,29.1c-0.5,3.8-0.2,7.7,0,11.5c0.7,9.6,6.5,16.1,14.3,16.2c18.9,0.1,37.7,0.1,56.6-0.1
		c7.9-0.1,14.5-5.8,15.8-14.1c0.9-6.1,1.7-12.4,1-18.5c-1.2-11.2,10.9-23.5,22.4-23c11.7,0.6,23.4,0.1,35,0.1
		c37.5,0,75-0.1,112.5,0.1c5.9,0,12.9-4.8,17.5,3.5c0.2,0.3,1.2,0.2,1.8,0.2c12.3,0,24.5,0,37.1,0c0.1-5.3,2.7-6.2,6.8-6.1
		c14.8,0.3,29.5,0.1,44.3,0.1c3.4,0,6.8,0,10.8,0c0.6-25.9,1.6-50.9,1.8-75.9c0.7-80.7,1.8-161.5,1.5-242.2
		c-0.5-195,3.4-390.1-3.4-585.1c-0.2-5.2-1.7-6.6-6.4-6.5c-16.2,0.2-32.4,0.1-48.6,0c-2,0-4-1.1-5.9-2c-1.9-0.9-3.7-3.1-5.5-3.2
		c-10.4-0.3-20.9-0.2-31.4-0.1c-1.6,0-3.1,1.1-4.7,1.7c-2.6,1-5.2,2.6-7.8,2.9c-3.4,0.4-6.9-0.6-10.4-0.6c-24.4-0.1-48.8,0-73.2,0
		c-23.6,0-47.1,0.1-70.7,0c-14.4-0.1-23.6-9.9-23.6-25c0-4.5,0.2-9-0.2-13.5c-0.9-11.4-7.1-18.1-17.5-18.2
		c-17.8-0.2-35.7-0.2-53.5,0c-9.1,0.1-14.9,5.6-16.4,15c-0.6,3.5-0.5,7.2-0.4,10.8c0.7,15.2-8.4,28.2-22.8,30.8
		c-8.4,1.5-17,1.5-25.5,2.3c-22.5,2-45,4.2-67.6,5.9C1186.7,89.5,1183.1,90.3,1184,97.8z"/>
	<path class="st1" d="M1184,97.8c-0.9-7.4,2.7-8.2,8-8.6c22.5-1.7,45.1-3.9,67.6-5.9c8.5-0.8,17.2-0.8,25.5-2.3
		c14.4-2.6,23.5-15.6,22.8-30.8c-0.2-3.6-0.2-7.3,0.4-10.8c1.5-9.4,7.4-14.8,16.4-15c17.8-0.2,35.7-0.2,53.5,0
		c10.4,0.1,16.6,6.8,17.5,18.2c0.3,4.5,0.2,9,0.2,13.5c0,15,9.2,24.9,23.6,25c23.6,0.1,47.1,0,70.7,0c24.4,0,48.8,0,73.2,0
		c3.5,0,7,0.9,10.4,0.6c2.7-0.3,5.2-1.9,7.8-2.9c1.6-0.6,3.1-1.7,4.7-1.7c10.5-0.2,20.9-0.2,31.4,0.1c1.9,0.1,3.6,2.3,5.5,3.2
		c1.9,0.9,3.9,2,5.9,2c16.2,0.2,32.4,0.2,48.6,0c4.7-0.1,6.2,1.3,6.4,6.5c6.7,195,2.9,390,3.4,585.1c0.2,80.7-0.8,161.5-1.5,242.2
		c-0.2,25-1.2,50-1.8,75.9c-4,0-7.4,0-10.8,0c-14.8,0-29.5,0.2-44.3-0.1c-4.2-0.1-6.8,0.8-6.8,6.1c-12.6,0-24.8,0-37.1,0
		c-0.6,0-1.6,0.1-1.8-0.2c-4.5-8.3-11.6-3.4-17.5-3.5c-37.5-0.2-75-0.1-112.5-0.1c-11.7,0-23.4,0.5-35-0.1
		c-11.5-0.6-23.6,11.8-22.4,23c0.6,6.1-0.2,12.4-1,18.5c-1.2,8.3-7.8,14-15.8,14.1c-18.9,0.1-37.7,0.1-56.6,0.1
		c-7.9,0-13.6-6.6-14.3-16.2c-0.3-3.8-0.5-7.7,0-11.5c1.8-14.5-14.3-28.2-28-29.1c-18.7-1.2-37.3-3.2-56-4.8
		c-11.4-1-22.8-1.9-34.2-2.6c-3.3-0.2-5.5-0.9-5.6-5c-0.1-4.8-3.8-3.6-6.4-3.6c-28.5-0.1-57,0-85.5,0c-84.2,0.1-168.5,0.2-252.7,0.3
		c-23.1,0-46.2,0-69.3,0.2c-5.9,0-11.9-0.1-17.6,1.2c-10.5,2.2-17,11.4-17.3,22.5c-0.2,7.7-0.4,15.4-1,23
		c-0.7,9.7-7.5,16.5-16.9,16.6c-17.4,0.3-34.8,0.3-52.3,0.1c-10.3-0.1-16.2-6.5-16.5-17.4c-0.2-8.1,0.6-16.3-0.6-24.2
		c-1.9-12.3-12.8-21.1-25.5-21.8c-1.6-0.1-3.3,0-4.9,0c-35.4,0-70.9-0.1-106.3,0.1c-13.9,0.1-27.5,0.5-40.4-7.3
		c-5.2-3.1-12.1-3.9-18.3-4.4c-18.5-1.5-37.1-2.2-55.7-3.3c-14.7-0.9-29.4-1.3-44.1-2.9c-4.3-0.5-8.5-3.7-12.3-6.4
		c-10.8-7.7-17.4-18.8-22.4-31.4c-8.6-1.3-8.6-1.3-8.6-11.1c0-17.1,0-34.2,0-52.1c-6.8,0-12.6,0-19.1,0c-0.7-7.9-1.4-15-2.1-23
		c-7.5,0-15.2-0.1-22.9,0.1c-1.1,0-2.3,1.9-3.1,3.1c-0.5,0.8-0.2,2.1-0.2,3.2c-0.4,14.3-0.4,14.3-14.8,13.5
		c-0.1-1.7-0.4-3.5-0.4-5.4c-0.4-45.6-1-91.2-1.2-136.8c-0.5-117.8-1.1-235.5-1.1-353.3c0-38.7,1.7-77.4,2.5-116.1
		c0.1-4.7,0-9.4,0.1-14.1c0.2-9,0.2-9,8.5-8.9c1.8,0,3.6,0.2,6,0.3c0.3,4.8,0.4,9.5,1.1,14.1c0.2,1.5,2.2,3.9,3.4,4
		c7.3,0.4,14.7,0.2,22.2,0.2c0.6-7.5,1.2-14.5,1.9-22.1c5.8,0,11.5,0,17.8,0c0.1-2.9,0.3-5.2,0.3-7.5c0.4-16.9,0.9-33.7,1.2-50.6
		c0.1-3.4,0.9-5.5,4.5-5.2c3.4,0.3,4.6-0.8,5.7-4.6c5.6-19.9,25.8-34.7,45.6-35.5c30.7-1.3,61.5-3,92.1-5.6c8-0.7,15.8-5.4,23.7-8
		c3.2-1.1,6.6-2.4,9.9-2.4c42.4-0.2,84.8,0,127.3-0.4c6.1-0.1,12.6-1.7,18-4.6c9.8-5.3,12-15.5,12.2-26.2c0.1-5.3-0.2-10.7,0-16
		c0.4-10.4,7.5-17.3,17.5-17.3c16,0,32,0.7,48-0.2c12.5-0.7,21.2,6.8,21,21.8c-0.1,6.2,0.1,12.4,0.2,18.6c0.1,11.5,7.3,21,18.2,23.3
		c4.3,0.9,8.8,0.8,13.1,0.9c21.7,0.3,43.3,0.6,65,0.7c8.5,0,17.1-0.7,25.6-0.7c106,0,211.9,0,317.9,0.1
		C1177.8,97.8,1180.4,97.8,1184,97.8z"/>
</g>
<g class="st2">
	<path class="st3" d="M342.4,525.2V525c0-65.8,37.7-105.5,97.3-105.5c49.6,0,85.1,31.3,89.1,74.6l0.1,1.3h-41.6l-0.6-2.4
		c-4.8-22.5-21.5-37.2-47-37.2c-32.7,0-53.7,26.3-53.7,69.1v0.1c0,43,21,69.7,53.7,69.7c24.6,0,41.9-14.2,47.4-38.4l0.3-1.4H529
		l-0.1,1.6c-4,43.5-39.8,74.5-89.2,74.5C379.9,630.9,342.4,591,342.4,525.2z"/>
	<path class="st3" d="M549.5,423.1h42.8v204.3h-42.8V423.1z"/>
	<path class="st3" d="M620.5,423.1h37.4l92.3,132.8h0.8V423.1h42.6v204.3h-37.1l-92.6-133.8h-0.8v133.8h-42.6V423.1z"/>
	<path class="st3" d="M821.8,423.1h135.4v35.3h-92.6v49H952v33.4h-87.4v51.4h92.6v35.3H821.8V423.1z"/>
	<path class="st3" d="M974.6,571l-0.1-2.3h40.4l0.3,1.6c2.7,15.9,19.5,25.8,42.9,25.8c23.6,0,38.5-10.3,38.5-25.9V570
		c0-13.9-10.1-20.8-35.4-26.1l-21.5-4.2c-40.4-8.1-60.7-27.3-60.7-58.1v-0.1c0-37.4,32.6-62,77.9-62c47.3,0,76.3,23.6,78.3,59.5
		l0.1,2.7h-40.4l-0.1-1.7c-2.1-16-16.9-25.8-37.9-25.8c-21.9,0.1-35.1,10.2-35.1,24.8v0.1c0,12.9,10.5,20.4,34,25.1l21.7,4.4
		c42.8,8.5,62,25.9,62,58.1v0.1c0,39.2-30.9,64.1-82.4,64.1C1008.3,630.9,977,608.7,974.6,571z"/>
	<path class="st3" d="M1159.6,555.2V423.1h42.8v128.3c0,26.5,15.4,43.3,42.9,43.3s42.8-16.9,42.8-43.3V423.1h42.8v132.1
		c0,45.3-32.9,75.8-85.5,75.8C1192.8,630.9,1159.6,600.6,1159.6,555.2z"/>
	<path class="st3" d="M1358.9,423.1h42.8v204.3h-42.8V423.1z"/>
	<path class="st3" d="M1478.7,458.3h-59v-35.3h161v35.3h-59.2v169.1h-42.8V458.3z"/>
</g>
<image style="display:none;overflow:visible;" width="1745" height="982" xlink:href="../../../REF 1 CS.png"  transform="matrix(1.1003 0 0 1.1003 0 2.421)">
</image>
<g>
	<path d="M624.2,415v-0.2c0-71.8,42-115.1,108.4-115.1c55.2,0,94.8,34.1,99.3,81.4l0.2,1.4h-46.4l-0.6-2.6
		c-5.4-24.6-24-40.6-52.4-40.6c-36.4,0-59.8,28.7-59.8,75.4v0.2c0,47,23.4,76,59.8,76c27.5,0,46.7-15.4,52.9-41.9l0.3-1.5h46.4
		l-0.2,1.7c-4.4,47.4-44.3,81.3-99.4,81.3C666,530.3,624.2,486.8,624.2,415z"/>
	<path d="M858.3,303.6H906v222.9h-47.7V303.6z"/>
	<path d="M940.6,303.6h41.7l102.9,144.9h0.9V303.6h47.5v222.9h-41.3L989,380.5h-0.9v146h-47.5V303.6z"/>
	<path d="M1168.2,303.6h150.8V342h-103.2v53.5h97.4v36.5h-97.4V488h103.2v38.5h-150.8V303.6z"/>
	<path d="M654.4,724.1l-0.1-2.3h42.1l0.3,1.6c2.8,16.2,20.4,26.3,44.7,26.3c24.7,0,40.2-10.5,40.2-26.4v-0.1
		c0-14.2-10.5-21.2-36.9-26.6l-22.4-4.3c-42.1-8.2-63.3-27.9-63.3-59.3v-0.1c0-38.2,34-63.3,81.2-63.3c49.3,0,79.6,24.1,81.6,60.7
		l0.1,2.7h-42.1l-0.1-1.7c-2.2-16.3-17.6-26.3-39.6-26.3c-22.9,0.1-36.6,10.4-36.6,25.3v0.1c0,13.2,10.9,20.8,35.4,25.6l22.6,4.5
		c44.6,8.7,64.7,26.4,64.7,59.3v0.1c0,40-32.2,65.5-85.9,65.5C689.6,785.2,656.9,762.5,654.4,724.1z"/>
	<path d="M850.2,707.9V573.1h44.6V704c0,27,16.1,44.2,44.7,44.2c28.6,0,44.6-17.2,44.6-44.2V573.1h44.6v134.8
		c0,46.2-34.2,77.3-89.2,77.3C884.9,785.2,850.2,754.3,850.2,707.9z"/>
	<path d="M1061.1,573.1h44.6v208.5h-44.6V573.1z"/>
	<path d="M1189,609.1h-61.6v-36h167.8v36h-61.7v172.6H1189V609.1z"/>
</g>
</svg>
