<?xml version="1.0" encoding="utf-8"?>
<!-- Generator: Adobe Illustrator 28.1.0, SVG Export Plug-In . SVG Version: 6.00 Build 0)  -->
<svg version="1.1" id="Layer_1" xmlns="http://www.w3.org/2000/svg" xmlns:xlink="http://www.w3.org/1999/xlink" x="0px" y="0px"
	 viewBox="0 0 16 15.9" style="enable-background:new 0 0 16 15.9;" xml:space="preserve">
<style type="text/css">
	.st0{display:none;fill:#FFFFFF;}
	.st1{fill:#FFFFFF;}
</style>
<path class="st0" d="M8,2.8C7.3,2.8,6.2,2,5,2C3.4,2,2,2.9,1.2,4.3c-1.6,2.8-0.4,7,1.2,9.3C3.1,14.8,4,16,5.2,16
	c1.2,0,1.6-0.8,3-0.8c1.4,0,1.8,0.8,3.1,0.7c1.3,0,2.1-1.1,2.8-2.3c0.9-1.3,1.3-2.6,1.3-2.6c0,0-2.4-0.9-2.5-3.7
	c0-2.3,1.9-3.5,2-3.5C13.9,2.2,12.2,2,11.6,2C10,1.8,8.7,2.8,8,2.8z M10.6,0.4c0.6-0.8,1.1-1.9,1-2.9c-0.9,0-2.1,0.6-2.7,1.4
	c-0.6,0.7-1.1,1.8-1,2.9C8.9,1.8,10,1.2,10.6,0.4"/>
<g>
	<path class="st1" d="M8.5,0c1.8,0,3.7,0,5.5,0c0,0,0,0,0,0.1c0.3,0.8,0.4,1.7,0.2,2.6c-0.3,1.3-1.1,2.2-2.4,2.6
		c-0.2,0.1-0.4,0.1-0.6,0.1c0,0.7,0,1.4,0,2.1c1.1-0.1,2.1-0.4,2.9-1.1c0.8-0.7,1.4-1.5,1.7-2.6c0,0,0,0,0,0c0,2.9,0,5.8,0,8.7
		c-0.1-0.2-0.2-0.4-0.3-0.6c-0.9-1.7-2.2-2.6-4.2-2.6c-1,0-1.9,0.4-2.7,1.2c-0.6,0.6-1,1.4-1.2,2.2c-0.2,0.7-0.4,1.4-0.6,2.1
		c-0.1,0.3-0.2,0.7-0.3,1c0,0.1-0.1,0.1-0.2,0.1c-1.6,0-3.3,0-4.9,0c0,0-0.1,0-0.1,0c-0.1-0.4-0.1-0.8-0.1-1.2c0-0.7,0.1-1.3,0.4-2
		c0.4-0.8,1-1.4,1.9-1.7C4,11.1,4,11,4,10.9C4,10.3,4,9.7,4,9c0,0,0-0.1,0-0.1C2,9.1,0.7,10.3,0,12.2c0-0.1,0-0.1,0-0.2
		c0-1.3,0-2.7,0-4c0,0,0-0.1,0-0.1c0-1.3,0-2.7,0-4C0,3.9,0,4,0.1,4c0.4,1.1,1.1,2.1,2.1,2.7c0.5,0.3,1,0.5,1.6,0.7
		c0.2,0,0.4,0.1,0.6,0.1c0-0.7,0-1.4,0-2.1c-0.1,0-0.1,0-0.1,0C4,5.2,3.7,5.2,3.5,5c-0.6-0.2-1-0.6-1.3-1.2C1.5,2.7,1.4,1.4,1.8,0.1
		C1.8,0,1.9,0,2,0c2.1,0,4.3,0,6.4,0C8.5,0,8.5,0,8.5,0z"/>
	<path class="st1" d="M0,7.9C0,7.9,0,8,0,8c0,1.3,0,2.7,0,4c0,0,0,0.1,0,0.2C0.7,10.3,2,9.1,4,8.9C4,8.9,4,9,4,9c0,0.6,0,1.3,0,1.9
		c0,0.1,0,0.1-0.1,0.1C3,11.3,2.4,11.9,2,12.8c-0.3,0.6-0.4,1.3-0.4,2c0,0.4,0,0.8,0.1,1.2c0,0,0.1,0,0.1,0c1.6,0,3.3,0,4.9,0
		c0.1,0,0.1,0,0.2-0.1c0.1-0.3,0.2-0.7,0.3-1c0.2-0.7,0.3-1.4,0.6-2.1c0.2-0.8,0.6-1.6,1.2-2.2c0.7-0.8,1.6-1.1,2.7-1.2
		c2-0.1,3.3,0.9,4.2,2.6c0.1,0.2,0.2,0.4,0.3,0.6c0-2.9,0-5.8,0-8.7c0,0,0,0,0,0c-0.3,1-0.9,1.9-1.7,2.6c-0.8,0.7-1.8,1.1-2.9,1.1
		c0-0.7,0-1.4,0-2.1c0.2,0,0.4-0.1,0.6-0.1c1.3-0.4,2.1-1.3,2.4-2.6c0.2-0.9,0.2-1.7-0.2-2.6c0,0,0,0,0-0.1c0.6,0,1.3,0,1.9,0
		c0,5.3,0,10.7,0,16c-5.3,0-10.7,0-16,0C0,13.3,0,10.6,0,7.9z M14.3,15.9c0,0,0-0.1,0-0.1c0-0.2,0.1-0.5,0.1-0.7
		c0-0.6,0-1.3-0.3-1.9c-0.4-0.9-1-1.5-2-1.7c-0.8-0.1-1.4,0.1-1.9,0.7c-0.2,0.3-0.4,0.7-0.5,1c-0.2,0.7-0.4,1.3-0.5,2
		C9.1,15.5,9,15.7,9,15.9C10.8,15.9,12.6,15.9,14.3,15.9z"/>
	<path class="st1" d="M8.5,0c0,0-0.1,0-0.1,0C6.3,0,4.1,0,2,0C1.9,0,1.8,0,1.8,0.1C1.4,1.4,1.5,2.7,2.2,3.9C2.5,4.4,2.9,4.8,3.5,5
		C3.7,5.2,4,5.2,4.3,5.3c0,0,0.1,0,0.1,0c0,0.7,0,1.4,0,2.1C4.2,7.4,4,7.4,3.8,7.4C3.2,7.2,2.7,7,2.2,6.7C1.1,6.1,0.5,5.1,0.1,4
		C0,4,0,3.9,0,3.9C0,2.6,0,1.3,0,0C2.8,0,5.7,0,8.5,0z"/>
	<path class="st1" d="M14.3,15.9c-1.8,0-3.6,0-5.4,0c0.1-0.2,0.1-0.4,0.2-0.6c0.2-0.7,0.3-1.3,0.5-2c0.1-0.4,0.3-0.7,0.5-1
		c0.5-0.6,1.2-0.9,1.9-0.7c1,0.1,1.6,0.8,2,1.7c0.3,0.6,0.3,1.2,0.3,1.9c0,0.2-0.1,0.5-0.1,0.7C14.4,15.9,14.4,15.9,14.3,15.9z"/>
</g>
</svg>
