<?xml version="1.0" encoding="utf-8"?>
<!-- Generator: Adobe Illustrator 28.0.0, SVG Export Plug-In . SVG Version: 6.00 Build 0)  -->
<svg version="1.1" id="Layer_1" xmlns="http://www.w3.org/2000/svg" xmlns:xlink="http://www.w3.org/1999/xlink" x="0px" y="0px"
	 viewBox="0 0 16 44" style="enable-background:new 0 0 16 44;" xml:space="preserve">
<style type="text/css">
	.st0{display:none;fill:none;}
	.st1{fill:none;}
</style>
<g>
	<path class="st0" d="M-1.3,12.3c6.2,0,12.3,0,18.5,0c0,6.2,0,12.3,0,18.5c-6.2,0-12.3,0-18.5,0C-1.3,24.7-1.3,18.5-1.3,12.3z
		 M8,16.2c0.2,0,0.4,0,0.5,0c0.3,0,0.6,0.1,0.9,0.2c0,0,0,0,0,0.1c0,0.2,0,0.4,0,0.6c0,0.1,0,0.1,0.1,0.1c2.1,0.7,3.4,2.9,3.1,5.1
		c-0.3,1.9-1.6,3.4-3.4,3.9c-0.1,0-0.1,0-0.2,0.1c0,0.5,0,1,0,1.5c3.2-0.5,5.7-3.6,5.1-7c-0.5-3.4-3.4-5.3-6.1-5.3
		C8,15.7,8,15.9,8,16.2z M7,15.5c-3.1,0.5-5.6,3.4-5.2,6.8c0.4,3.4,3.3,5.5,6.1,5.5c0-0.3,0-0.5,0-0.8c-0.2,0-0.3,0-0.5,0
		c-0.3,0-0.6-0.1-0.9-0.2c0,0-0.1,0-0.1-0.1c0-0.2,0-0.4,0-0.6c0-0.1,0-0.1-0.1-0.1c-2.1-0.7-3.4-2.9-3.1-5.1c0.3-1.7,1.4-3.1,3-3.7
		C6.6,17.1,6.8,17.1,7,17C7,16.5,7,16,7,15.5z"/>
	<path class="st1" d="M8,16.2c0-0.3,0-0.5,0-0.8c2.7-0.1,5.6,1.9,6.1,5.3c0.5,3.5-1.9,6.5-5.1,7c0-0.5,0-1,0-1.5
		c0.1,0,0.1,0,0.2-0.1c1.8-0.5,3.2-2,3.4-3.9c0.3-2.2-1-4.3-3.1-5.1c-0.1,0-0.1,0-0.1-0.1c0-0.2,0-0.4,0-0.6c0,0,0-0.1,0-0.1
		c-0.3-0.1-0.6-0.1-0.9-0.2C8.4,16.2,8.2,16.2,8,16.2z"/>
	<path class="st1" d="M7,15.5c0,0.5,0,1,0,1.5c-0.2,0.1-0.4,0.1-0.6,0.2c-1.6,0.6-2.8,2-3,3.7c-0.3,2.2,1,4.3,3.1,5.1
		c0.1,0,0.1,0,0.1,0.1c0,0.2,0,0.4,0,0.6c0,0,0,0.1,0.1,0.1c0.3,0.1,0.6,0.1,0.9,0.2c0.2,0,0.3,0,0.5,0c0,0.3,0,0.5,0,0.8
		c-2.8,0-5.7-2.1-6.1-5.5C1.5,18.9,3.9,15.9,7,15.5z"/>
</g>
</svg>
