<?xml version="1.0" encoding="utf-8"?>
<!-- Generator: Adobe Illustrator 28.0.0, SVG Export Plug-In . SVG Version: 6.00 Build 0)  -->
<svg version="1.1" id="Layer_1" xmlns="http://www.w3.org/2000/svg" xmlns:xlink="http://www.w3.org/1999/xlink" x="0px" y="0px"
	 viewBox="0 0 1920 1080" style="enable-background:new 0 0 1920 1080;" xml:space="preserve">
<style type="text/css">
	.st0{display:none;fill:#FFFFFF;}
	.st1{fill:#FFFFFF;}
</style>
<g>
	<path class="st0" d="M1679-1.4c0,362.9,0,726.1,0,1089.4c-485.9,0-971.9,0-1458.1,0c0-363,0-726.1,0-1089.4
		C706.8-1.4,1192.9-1.4,1679-1.4z M677.1,126.2c-0.2-1.3-0.4-2.4-0.5-3.5c-1-19.3-2-38.6-3.1-57.9c-0.7-12.2-5.5-16.7-17.6-16.7
		c-11.9,0-23.9,0.1-35.8,0.3c-8.4,0.1-12.6,2.6-14.4,10.8c-2,9.3-2.6,18.9-3.3,28.3c-0.9,12.3-8.3,19.4-20.7,19.4
		c-28.6,0-57.2,0.1-85.7,0c-20.5-0.1-41.1-0.6-61.6-0.3c-3.5,0-7.7,1.9-10.4,4.2c-17.6,14.8-35.5,29.3-52.2,45.2
		c-10.7,10.2-24.3,19.3-23.9,37.4c-7.3-0.3-14.5-1.3-16.9,7.7c-2.6-1.4-4.5-2.3-6.3-3.4c-6.4-3.8-8.8-2.9-9.7,4.4
		c-1.3,10-2.4,20.1-3.2,30.2c-1,13.6-1.4,27.3-2.2,41c-0.7,11.3-0.9,11-12,11.8c-5.4,0.4-7.7-0.9-7-6.6c0.5-3.8-0.7-6.6-5.4-6.5
		c-5.2,0.2-9.3,3.6-9.8,8.8c-0.5,5.2-2.2,9.6-6.4,12.9c-2.1,1.6-4.6,2.9-6.2,4.9c-5.4,6.4-7,14.1-7,22.3c0,3.1,0.9,6.9-0.4,9.3
		c-5.2,9.3-5.3,19.3-5.7,29.4c-0.2,5.5-1.1,10.9-1.1,16.3c0,9.9-1.1,20.1,1.1,29.6c3.6,15.6,9.4,30.6,14.5,45.8
		c1.1,3.3,3,6.2,4.4,9.4c0.8,1.9,1.9,4,1.9,6c-0.2,9.1-1.1,18.3-1.2,27.4c-0.1,7.4,0.9,14.8,0.8,22.2c-0.2,29.9-0.8,59.8-1,89.8
		c-0.1,9.8,0.3,19.5,0.4,29.3c0,29.7-0.3,59.5,0.1,89.2c0.2,15.6,1.8,31.2,2.9,46.8c0.8,10.3,1.6,20.5,3.2,30.7
		c0.8,5.1,5.1,7.5,10.3,7.9c5.5,0.4,6.1-4,7.2-7.6c0.6-1.8,0.4-3.7,0.6-5.6c5.6,0,10.8,0,16.2,0c0.6,10,1.2,19.6,1.7,29.1
		c0.6,12.1,1,24.2,1.8,36.3c0.5,6.6,1.6,13.1,2.7,19.6c0.7,4.1,3.1,5.1,6.8,2.8c2.3-1.4,4.8-2.5,7.9-4c3,8.2,9.8,7.5,16.7,6.8
		c1.3,8.6,2,16.6,8.8,22.7c20.1,18.2,39.8,36.8,59.8,55.1c6.4,5.9,13.5,9,23,8.8c28.9-0.8,57.7-0.3,86.6-0.3c18,0,36-0.3,54,0.1
		c11.8,0.3,22.3,5.6,22.3,19.4c0,8.4,1.3,16.7,1.9,25.1c0.7,9.2,6.3,14.7,15.4,14.7c12.3,0,24.7-0.3,37,0.1
		c12.1,0.3,15-4.7,15.7-14.8c1.3-19.5,2.2-39,3-58.5c0.2-3.9,1.5-5,5.3-4.8c6.8,0.3,13.7,0.1,20.5,0.1c8.3,0,8.5,0.3,9.1,8.5
		c0.7,10.5,3.4,11.9,13.6,11.8c23.4-0.4,46.9-0.3,70.3,0.3c9.3,0.2,17.3,10.1,17.6,19.3c0.3,9,0.8,17.9,1.6,26.9
		c0.5,6.6,6,11.2,12.6,11.2c16.4,0,32.9,0,49.3,0c8.5,0,12-3.3,12.2-12c0.1-5.1,0.2-10.2,0-15.3c-0.2-4.4,1.2-6.4,6-6.3
		c12.2,0.2,22.6,4,29.5,14.6c3.3,5,7.4,6.9,13.7,6.9c59.3-0.3,118.6-0.3,177.9-0.2c16,0,16,0.1,16.6-15.8c0.1-3,1-4.3,4.1-4.2
		c4.3,0.2,8.6,0.1,12.9,0.1c11.6,0,11.6,0,11.7,11.4c0.1,7.8,0.8,8.6,8.8,8.6c22.7,0.1,45.4,0.3,68.1,0.1c14-0.2,24.7,11,23.5,23.2
		c-0.4,4.4,0.5,8.9,1.4,13.3c1.1,5.8,5.2,8.7,10.8,8.8c16.8,0.2,33.7,0.2,50.5,0c6.1,0,10.4-3.6,11.4-9.6c0.9-5.2,1.3-10.5,1.5-15.7
		c0.4-9.5,6.7-17.2,16.1-18.6c5-0.7,10.1-1.3,15.2-1.3c20.2-0.2,40.3-0.1,60.5-0.2c6.5,0,8.2-1.9,8.4-8.4c0.1-2.7,0.2-5.5,0.6-8.2
		c0.2-1.1,1.3-3,2.1-3c8.1-0.2,16.2-0.1,24.5-0.1c0,3.3,0,5.5,0,7.6c0,9.7,2.4,12.1,12,12.1c49.5,0,99,0,148.5,0
		c7.1,0,14.7-6.9,15.2-14c1-16.4,2.5-32.8,2.9-49.2c1.1-49.3,2.3-98.6,2.5-147.9c0.5-103.5,0.7-207,0.5-310.6
		c-0.3-141,3-282.1-5.7-423c-0.5-7.7-6.9-14.1-14.7-14.2c-48.5-0.1-97-0.1-145.6-0.1c-11.7,0-11.7,0-14.6,11.1
		c-0.5,1.9-0.4,3.9-1.1,5.7c-0.5,1.3-1.9,3.2-2.9,3.3c-7.4,0.3-14.8,0.2-22.4,0.2c-0.2-3.5-0.3-6-0.5-8.5
		c-0.5-10.2-2.1-11.7-12.3-11.7c-21.1,0-42.3,0.1-63.4,0c-13.4-0.1-23-6.6-24.8-19c-0.7-4.6-0.6-9.3-1-14c-0.6-7.8-6-13.1-13.8-13
		c-16.2,0.1-32.5,0.4-48.7,0.7c-6.3,0.1-10.4,3.2-11.7,9.4c-0.9,4.2-1.4,8.6-1.1,12.8c0.9,13-9.4,22.6-22.7,22.6
		c-15.6,0-31.3,0-46.9,0c-7.8,0-15.6-0.1-23.5,0c-5,0.1-7.5,2.4-7.1,7.8c0.3,4,0.1,8.1,0.1,11.8c-1.1,0.4-1.5,0.7-1.9,0.7
		c-5.3,0-10.6,0.1-15.8,0.1c-10.2,0-10.2,0-10.3-10.2c0-7.8-1.6-9.5-9.1-9.3c-17.1,0.4-34.2,1.3-51.4,1.4
		c-46.2,0.2-92.4,0.1-138.5,0c-4.6,0-7.7,1-9.9,5.2c-5.6,10.7-24.4,15.5-33.8,11.9c-0.6-7.4-1.3-14.8-1.8-22.2
		c-0.4-5.7-4-9.9-9.4-9.9c-17.2,0-34.4,0-51.7,0.3c-6.1,0.1-11.2,3-12,9.7c-0.8,6.9-0.5,14-1.4,20.9c-0.9,6.2-1.6,12.9-4.5,18.3
		c-4.3,7.9-12.7,9.7-21.2,9.8c-19.4,0.1-38.7,0.1-58.1,0c-15.6,0-15.6,0-18.8,15.1c-0.3,1.6-2,4-3,4.1
		C697.2,126.3,687.3,126.2,677.1,126.2z"/>
	<path class="st1" d="M677.1,126.2c10.2,0,20.1,0.1,30-0.2c1.1,0,2.7-2.5,3-4.1c3.2-15.1,3.1-15.1,18.8-15.1c19.4,0,38.7,0.1,58.1,0
		c8.5,0,17-1.9,21.2-9.8c2.9-5.4,3.7-12.1,4.5-18.3c1-6.9,0.6-14,1.4-20.9c0.8-6.7,5.9-9.6,12-9.7c17.2-0.3,34.4-0.3,51.7-0.3
		c5.4,0,9,4.2,9.4,9.9c0.5,7.4,1.2,14.8,1.8,22.2c9.4,3.6,28.2-1.2,33.8-11.9c2.2-4.2,5.4-5.2,9.9-5.2c46.2,0.2,92.4,0.2,138.5,0
		c17.1-0.1,34.2-1,51.4-1.4c7.6-0.2,9.1,1.6,9.1,9.3c0,10.2,0,10.3,10.3,10.2c5.3,0,10.6,0,15.8-0.1c0.4,0,0.7-0.3,1.9-0.7
		c0-3.7,0.2-7.8-0.1-11.8c-0.4-5.3,2.2-7.7,7.1-7.8c7.8-0.1,15.6,0,23.5,0c15.6,0,31.3,0,46.9,0c13.3,0,23.6-9.6,22.7-22.6
		c-0.3-4.2,0.2-8.6,1.1-12.8c1.3-6.2,5.4-9.3,11.7-9.4c16.2-0.3,32.5-0.6,48.7-0.7c7.8-0.1,13.2,5.2,13.8,13c0.4,4.7,0.3,9.4,1,14
		c1.9,12.4,11.4,19,24.8,19c21.1,0.1,42.3,0,63.4,0c10.1,0,11.7,1.5,12.3,11.7c0.1,2.5,0.3,5,0.5,8.5c7.7,0,15.1,0.1,22.4-0.2
		c1,0,2.4-1.9,2.9-3.3c0.7-1.8,0.7-3.8,1.1-5.7c2.8-11.1,2.8-11.2,14.6-11.1c48.5,0,97,0.1,145.6,0.1c7.8,0,14.2,6.4,14.7,14.2
		c8.6,140.9,5.4,282,5.7,423c0.2,103.5,0,207-0.5,310.6c-0.2,49.3-1.4,98.6-2.5,147.9c-0.4,16.4-1.8,32.8-2.9,49.2
		c-0.5,7.1-8,14-15.2,14c-49.5,0-99,0-148.5,0c-9.6,0-12-2.4-12-12.1c0-2.1,0-4.3,0-7.6c-8.3,0-16.4-0.1-24.5,0.1
		c-0.7,0-1.9,1.9-2.1,3c-0.5,2.7-0.6,5.4-0.6,8.2c-0.2,6.5-1.9,8.4-8.4,8.4c-20.2,0.1-40.3,0-60.5,0.2c-5.1,0-10.1,0.6-15.2,1.3
		c-9.3,1.4-15.7,9.1-16.1,18.6c-0.2,5.3-0.6,10.6-1.5,15.7c-1,6-5.3,9.6-11.4,9.6c-16.8,0.1-33.7,0.2-50.5,0
		c-5.6-0.1-9.7-3-10.8-8.8c-0.8-4.4-1.8-9-1.4-13.3c1.2-12.2-9.5-23.4-23.5-23.2c-22.7,0.3-45.4,0-68.1-0.1c-8,0-8.8-0.8-8.8-8.6
		c-0.1-11.4-0.1-11.4-11.7-11.4c-4.3,0-8.6,0.1-12.9-0.1c-3.1-0.1-4,1.2-4.1,4.2c-0.5,16-0.6,15.8-16.6,15.8
		c-59.3,0-118.6,0-177.9,0.2c-6.2,0-10.4-1.8-13.7-6.9c-6.9-10.6-17.3-14.4-29.5-14.6c-4.8-0.1-6.2,1.8-6,6.3
		c0.2,5.1,0.2,10.2,0,15.3c-0.2,8.6-3.7,12-12.2,12c-16.4,0-32.9,0-49.3,0c-6.7,0-12.1-4.7-12.6-11.2c-0.7-8.9-1.3-17.9-1.6-26.9
		c-0.3-9.2-8.4-19.1-17.6-19.3c-23.4-0.5-46.9-0.7-70.3-0.3c-10.2,0.2-12.8-1.2-13.6-11.8c-0.6-8.2-0.9-8.4-9.1-8.5
		c-6.8,0-13.7,0.2-20.5-0.1c-3.8-0.2-5.1,0.9-5.3,4.8c-0.8,19.5-1.7,39-3,58.5c-0.7,10.1-3.5,15.1-15.7,14.8
		c-12.3-0.3-24.7-0.1-37-0.1c-9.1,0-14.8-5.4-15.4-14.7c-0.6-8.4-1.9-16.7-1.9-25.1c0-13.7-10.6-19.1-22.3-19.4
		c-18-0.4-36-0.1-54-0.1c-28.9,0-57.8-0.5-86.6,0.3c-9.5,0.3-16.6-2.9-23-8.8c-20-18.3-39.7-36.9-59.8-55.1
		c-6.7-6.1-7.5-14.1-8.8-22.7c-6.8,0.8-13.7,1.5-16.7-6.8c-3.1,1.6-5.6,2.6-7.9,4c-3.7,2.3-6.1,1.3-6.8-2.8
		c-1.1-6.5-2.3-13-2.7-19.6c-0.9-12.1-1.2-24.2-1.8-36.3c-0.5-9.5-1.1-19.1-1.7-29.1c-5.5,0-10.6,0-16.2,0c-0.2,1.9-0.1,3.9-0.6,5.6
		c-1.2,3.6-1.7,8-7.2,7.6c-5.2-0.4-9.5-2.8-10.3-7.9c-1.6-10.2-2.4-20.4-3.2-30.7c-1.2-15.6-2.7-31.2-2.9-46.8
		c-0.5-29.7-0.1-59.5-0.1-89.2c0-9.8-0.5-19.6-0.4-29.3c0.3-29.9,0.8-59.8,1-89.8c0.1-7.4-0.9-14.8-0.8-22.2
		c0.1-9.1,1-18.3,1.2-27.4c0-2-1-4.1-1.9-6c-1.4-3.2-3.3-6.2-4.4-9.4c-5.1-15.2-10.9-30.2-14.5-45.8c-2.2-9.4-1-19.7-1.1-29.6
		c0-5.4,0.9-10.9,1.1-16.3c0.3-10.1,0.4-20.1,5.7-29.4c1.4-2.4,0.4-6.1,0.4-9.3c0-8.2,1.6-15.9,7-22.3c1.7-2,4.1-3.2,6.2-4.9
		c4.2-3.3,5.9-7.8,6.4-12.9c0.6-5.2,4.6-8.6,9.8-8.8c4.6-0.2,5.8,2.7,5.4,6.5c-0.7,5.6,1.6,7,7,6.6c11.1-0.8,11.3-0.5,12-11.8
		c0.9-13.6,1.3-27.3,2.2-41c0.7-10.1,1.8-20.2,3.2-30.2c1-7.3,3.3-8.2,9.7-4.4c1.8,1.1,3.7,2,6.3,3.4c2.4-9,9.6-8,16.9-7.7
		c-0.4-18,13.2-27.2,23.9-37.4c16.7-15.8,34.6-30.4,52.2-45.2c2.8-2.3,6.9-4.2,10.4-4.2c20.5-0.2,41.1,0.3,61.6,0.3
		c28.6,0.1,57.2,0,85.7,0c12.4,0,19.8-7.1,20.7-19.4c0.7-9.5,1.3-19.1,3.3-28.3c1.8-8.3,5.9-10.7,14.4-10.8
		c11.9-0.2,23.9-0.3,35.8-0.3c12.1,0,16.9,4.5,17.6,16.7c1.1,19.3,2.1,38.6,3.1,57.9C676.7,123.8,677,124.9,677.1,126.2z"/>
</g>
</svg>
