<?xml version="1.0" encoding="utf-8"?>
<!-- Generator: Adobe Illustrator 28.0.0, SVG Export Plug-In . SVG Version: 6.00 Build 0)  -->
<svg version="1.1" id="Layer_1" xmlns="http://www.w3.org/2000/svg" xmlns:xlink="http://www.w3.org/1999/xlink" x="0px" y="0px"
	 viewBox="0 0 1920 1080" style="enable-background:new 0 0 1920 1080;" xml:space="preserve">
<style type="text/css">
	.st0{display:none;fill:none;}
	.st1{fill:none;}
</style>
<g>
	<path class="st0" d="M538.2,16.1c263.6,0,527.5,0,791.3,0c0,353,0,706,0,1059.1c-263.7,0-527.4,0-791.3,0
		C538.2,722.3,538.2,369.2,538.2,16.1z M630.8,743.8c-0.9,0.1-1.7,0.3-2.6,0.3c-14,0.8-28.1,1.4-42.1,2.2c-8.9,0.5-12.2,4-12.2,12.8
		c0,8.7,0.1,17.3,0.2,26c0.1,6.1,1.9,9.1,7.9,10.4c6.7,1.4,13.7,1.9,20.6,2.4c8.9,0.7,14.1,6,14.1,15c0,20.8,0.1,41.5,0,62.3
		c0,14.9-0.4,29.8-0.2,44.8c0,2.6,1.4,5.6,3.1,7.6c10.7,12.8,21.3,25.8,32.8,37.9c7.4,7.8,14,17.7,27.1,17.4
		c-0.2,5.3-1,10.6,5.6,12.3c-1,1.9-1.7,3.3-2.5,4.6c-2.7,4.6-2.1,6.4,3.2,7.1c7.3,1,14.6,1.8,22,2.3c9.9,0.7,19.8,1,29.8,1.6
		c8.2,0.5,8,0.6,8.6,8.7c0.3,3.9-0.7,5.6-4.8,5.1c-2.7-0.3-4.8,0.5-4.7,3.9c0.1,3.8,2.6,6.7,6.4,7.1c3.7,0.4,7,1.6,9.4,4.7
		c1.2,1.5,2.1,3.3,3.5,4.5c4.6,3.9,10.3,5.1,16.2,5.1c2.3,0,5-0.7,6.7,0.3c6.7,3.8,14,3.9,21.3,4.1c4,0.1,7.9,0.8,11.9,0.8
		c7.2,0,14.6,0.8,21.5-0.8c11.3-2.6,22.2-6.8,33.3-10.5c2.4-0.8,4.5-2.2,6.8-3.2c1.4-0.6,2.9-1.4,4.4-1.4c6.6,0.2,13.3,0.8,19.9,0.9
		c5.4,0.1,10.7-0.7,16.1-0.6c21.7,0.2,43.5,0.6,65.2,0.8c7.1,0.1,14.2-0.3,21.3-0.3c21.6,0,43.2,0.3,64.8-0.1
		c11.3-0.2,22.6-1.3,34-2.1c7.5-0.6,14.9-1.2,22.3-2.3c3.7-0.6,5.4-3.7,5.7-7.5c0.3-4-2.9-4.4-5.5-5.3c-1.3-0.4-2.7-0.3-4.1-0.5
		c0-4.1,0-7.8,0-11.8c7.3-0.4,14.2-0.9,21.1-1.2c8.8-0.5,17.6-0.7,26.4-1.3c4.8-0.3,9.5-1.2,14.2-2c3-0.5,3.7-2.2,2.1-4.9
		c-1-1.7-1.8-3.5-2.9-5.7c6-2.2,5.5-7.1,4.9-12.1c6.2-0.9,12-1.5,16.5-6.4c13.2-14.6,26.7-28.9,40-43.5c4.3-4.7,6.5-9.8,6.4-16.7
		c-0.6-21-0.2-41.9-0.2-62.9c0-13.1-0.2-26.2,0.1-39.2c0.2-8.5,4.1-16.2,14.1-16.2c6.1,0,12.1-1,18.2-1.4
		c6.7-0.5,10.6-4.6,10.6-11.2c0-9-0.2-17.9,0.1-26.9c0.2-8.8-3.4-10.9-10.8-11.4c-14.2-1-28.3-1.6-42.5-2.2
		c-2.9-0.1-3.6-1.1-3.5-3.8c0.2-5,0.1-9.9,0.1-14.9c0-6,0.2-6.2,6.2-6.6c7.6-0.5,8.7-2.4,8.5-9.8c-0.3-17-0.2-34,0.2-51
		c0.2-6.7,7.3-12.6,14-12.8c6.5-0.2,13-0.6,19.5-1.1c4.8-0.4,8.2-4.4,8.2-9.2c0-11.9,0-23.9,0-35.8c0-6.2-2.4-8.7-8.7-8.9
		c-3.7-0.1-7.4-0.2-11.1,0c-3.2,0.2-4.6-0.9-4.6-4.3c0.1-8.9,2.9-16.4,10.6-21.4c3.7-2.4,5-5.4,5-9.9c-0.2-43.1-0.2-86.1-0.2-129.2
		c0-11.6,0.1-11.6-11.5-12c-2.2-0.1-3.1-0.7-3-3c0.1-3.1,0.1-6.3,0.1-9.4c0-8.4,0-8.4,8.3-8.5c5.7-0.1,6.2-0.6,6.2-6.4
		c0-16.5,0.2-33,0.1-49.5c-0.1-10.2,8-17.9,16.9-17.1c3.2,0.3,6.5-0.4,9.7-1c4.2-0.8,6.3-3.8,6.4-7.9c0.1-12.2,0.1-24.4,0-36.7
		c0-4.5-2.6-7.6-7-8.3c-3.8-0.6-7.6-0.9-11.4-1.1c-6.9-0.3-12.5-4.9-13.5-11.7c-0.5-3.6-0.9-7.3-1-11c-0.1-14.6-0.1-29.3-0.1-43.9
		c0-4.7-1.4-6-6.1-6.1c-2-0.1-4-0.1-5.9-0.5c-0.8-0.1-2.2-1-2.2-1.5c-0.2-5.9-0.1-11.8-0.1-17.8c2.4,0,4,0,5.5,0
		c7,0,8.8-1.8,8.8-8.7c0-36,0-71.9,0-107.9c0-5.2-5-10.7-10.2-11c-11.9-0.8-23.8-1.8-35.7-2.1c-35.8-0.8-71.6-1.6-107.4-1.8
		c-75.2-0.4-150.4-0.5-225.6-0.3c-102.4,0.2-204.9-2.1-307.3,4.1c-5.6,0.3-10.3,5-10.3,10.6c0,35.2-0.1,70.5-0.1,105.7
		c0,8.5,0,8.5,8.1,10.6c1.4,0.3,2.8,0.3,4.1,0.8c1,0.4,2.3,1.4,2.4,2.1c0.2,5.4,0.1,10.7,0.1,16.3c-2.6,0.1-4.4,0.2-6.2,0.3
		c-7.4,0.4-8.5,1.5-8.5,8.9c0,15.4,0.1,30.7,0,46.1c0,9.7-4.8,16.7-13.8,18c-3.4,0.5-6.8,0.5-10.2,0.7c-5.7,0.4-9.5,4.4-9.4,10
		c0.1,11.8,0.3,23.6,0.5,35.4c0.1,4.6,2.3,7.5,6.8,8.5c3,0.6,6.2,1,9.3,0.8c9.4-0.7,16.4,6.9,16.4,16.5c0,11.4,0,22.7,0,34.1
		c0,5.7-0.1,11.4,0,17c0.1,3.6,1.8,5.5,5.6,5.2c2.9-0.2,5.9,0,8.6,0c0.3,0.8,0.5,1.1,0.5,1.4c0,3.8,0.1,7.7,0.1,11.5
		c0,7.4,0,7.4-7.4,7.5c-5.6,0-6.9,1.1-6.8,6.6c0.3,12.4,0.9,24.9,1,37.3c0.1,33.5,0.1,67.1,0,100.6c0,3.3,0.7,5.6,3.8,7.2
		c7.8,4.1,11.2,17.8,8.6,24.6c-5.4,0.4-10.7,0.9-16.1,1.3c-4.2,0.3-7.2,2.9-7.2,6.8c0,12.5,0,25,0.2,37.5c0.1,4.4,2.1,8.1,7,8.7
		c5,0.6,10.2,0.3,15.2,1c4.5,0.6,9.4,1.2,13.3,3.3c5.7,3.1,7.1,9.3,7.1,15.4c0.1,14.1,0,28.1,0,42.2c0,11.4,0,11.3,10.9,13.6
		c1.1,0.2,2.9,1.4,2.9,2.2C630.9,729.2,630.8,736.4,630.8,743.8z"/>
	<path class="st1" d="M630.8,743.8c0-7.4,0.1-14.6-0.1-21.8c0-0.8-1.8-2-2.9-2.2c-11-2.3-11-2.3-10.9-13.6c0-14.1,0.1-28.1,0-42.2
		c0-6.2-1.4-12.3-7.1-15.4c-3.9-2.1-8.8-2.7-13.3-3.3c-5-0.7-10.1-0.4-15.2-1c-4.9-0.6-7-4.3-7-8.7c-0.2-12.5-0.2-25-0.2-37.5
		c0-3.9,3.1-6.5,7.2-6.8c5.4-0.4,10.7-0.9,16.1-1.3c2.6-6.8-0.9-20.5-8.6-24.6c-3.1-1.6-3.8-3.9-3.8-7.2c0.1-33.5,0.2-67.1,0-100.6
		c-0.1-12.4-0.7-24.9-1-37.3c-0.1-5.5,1.1-6.6,6.8-6.6c7.4,0,7.4,0,7.4-7.5c0-3.8,0-7.7-0.1-11.5c0-0.3-0.2-0.5-0.5-1.4
		c-2.7,0-5.6-0.2-8.6,0c-3.9,0.3-5.6-1.6-5.6-5.2c-0.1-5.7,0-11.4,0-17c0-11.4,0-22.7,0-34.1c0-9.7-7-17.2-16.4-16.5
		c-3.1,0.2-6.3-0.2-9.3-0.8c-4.5-0.9-6.7-3.9-6.8-8.5c-0.2-11.8-0.4-23.6-0.5-35.4c0-5.6,3.8-9.6,9.4-10c3.4-0.3,6.8-0.2,10.2-0.7
		c9-1.4,13.8-8.3,13.8-18c0.1-15.4,0-30.7,0-46.1c0-7.4,1.1-8.5,8.5-8.9c1.8-0.1,3.6-0.2,6.2-0.3c0-5.6,0.1-10.9-0.1-16.3
		c0-0.8-1.4-1.7-2.4-2.1c-1.3-0.5-2.8-0.5-4.1-0.8c-8.1-2-8.1-2.1-8.1-10.6c0-35.2,0.1-70.5,0.1-105.7c0-5.7,4.7-10.3,10.3-10.6
		c102.4-6.3,204.8-3.9,307.3-4.1c75.2-0.1,150.4,0,225.6,0.3c35.8,0.2,71.6,1,107.4,1.8c11.9,0.3,23.8,1.3,35.7,2.1
		c5.2,0.3,10.2,5.8,10.2,11c0,36,0,71.9,0,107.9c0,7-1.8,8.7-8.8,8.7c-1.6,0-3.1,0-5.5,0c0,6-0.1,11.9,0.1,17.8
		c0,0.5,1.4,1.3,2.2,1.5c1.9,0.3,3.9,0.4,5.9,0.5c4.7,0.1,6.1,1.4,6.1,6.1c0.1,14.6,0,29.3,0.1,43.9c0,3.7,0.4,7.4,1,11
		c1,6.8,6.6,11.4,13.5,11.7c3.8,0.1,7.7,0.4,11.4,1.1c4.4,0.7,7,3.8,7,8.3c0.1,12.2,0.1,24.4,0,36.7c0,4.1-2.2,7.1-6.4,7.9
		c-3.2,0.6-6.5,1.3-9.7,1c-8.9-0.8-17,6.9-16.9,17.1c0.2,16.5,0,33-0.1,49.5c0,5.8-0.6,6.4-6.2,6.4c-8.3,0.1-8.3,0.1-8.3,8.5
		c0,3.1,0,6.3-0.1,9.4c-0.1,2.2,0.9,2.9,3,3c11.6,0.4,11.5,0.5,11.5,12c0,43.1,0,86.1,0.2,129.2c0,4.5-1.3,7.5-5,9.9
		c-7.7,5-10.4,12.6-10.6,21.4c-0.1,3.5,1.3,4.5,4.6,4.3c3.7-0.2,7.4-0.1,11.1,0c6.3,0.2,8.7,2.7,8.7,8.9c0,11.9,0,23.9,0,35.8
		c0,4.8-3.4,8.8-8.2,9.2c-6.5,0.5-13,0.9-19.5,1.1c-6.7,0.2-13.9,6.1-14,12.8c-0.4,17-0.5,34-0.2,51c0.1,7.4-0.9,9.3-8.5,9.8
		c-5.9,0.4-6.1,0.6-6.2,6.6c0,5,0.1,10-0.1,14.9c-0.1,2.7,0.6,3.7,3.5,3.8c14.2,0.6,28.4,1.2,42.5,2.2c7.4,0.5,11,2.6,10.8,11.4
		c-0.2,8.9-0.1,17.9-0.1,26.9c0,6.6-3.9,10.7-10.6,11.2c-6.1,0.4-12.1,1.4-18.2,1.4c-10,0-13.9,7.7-14.1,16.2
		c-0.3,13.1-0.1,26.2-0.1,39.2c0,21-0.4,42,0.2,62.9c0.2,6.9-2.1,12.1-6.4,16.7c-13.3,14.5-26.8,28.9-40,43.5
		c-4.4,4.9-10.2,5.5-16.5,6.4c0.6,5,1.1,9.9-4.9,12.1c1.1,2.2,1.9,4,2.9,5.7c1.6,2.7,1,4.4-2.1,4.9c-4.7,0.8-9.4,1.6-14.2,2
		c-8.8,0.6-17.6,0.9-26.4,1.3c-6.9,0.4-13.9,0.8-21.1,1.2c0,4,0,7.7,0,11.8c1.4,0.1,2.8,0,4.1,0.5c2.6,0.9,5.8,1.3,5.5,5.3
		c-0.3,3.8-2,6.9-5.7,7.5c-7.4,1.1-14.8,1.8-22.3,2.3c-11.3,0.9-22.6,2-34,2.1c-21.6,0.3-43.2,0.1-64.8,0.1
		c-7.1,0-14.2,0.3-21.3,0.3c-21.7-0.2-43.5-0.6-65.2-0.8c-5.4,0-10.7,0.7-16.1,0.6c-6.6-0.1-13.3-0.7-19.9-0.9c-1.4,0-3,0.7-4.4,1.4
		c-2.3,1-4.5,2.4-6.8,3.2c-11,3.7-22,7.9-33.3,10.5c-6.9,1.6-14.3,0.8-21.5,0.8c-4,0-7.9-0.7-11.9-0.8c-7.3-0.2-14.6-0.3-21.3-4.1
		c-1.7-1-4.5-0.3-6.7-0.3c-5.9,0-11.5-1.2-16.2-5.1c-1.4-1.2-2.4-3-3.5-4.5c-2.4-3.1-5.6-4.3-9.4-4.7c-3.8-0.4-6.2-3.3-6.4-7.1
		c-0.1-3.4,2-4.2,4.7-3.9c4.1,0.5,5.1-1.2,4.8-5.1c-0.6-8.1-0.4-8.2-8.6-8.7c-9.9-0.6-19.8-0.9-29.8-1.6c-7.3-0.5-14.7-1.3-22-2.3
		c-5.3-0.7-6-2.4-3.2-7.1c0.8-1.3,1.5-2.7,2.5-4.6c-6.6-1.7-5.8-7-5.6-12.3c-13.1,0.3-19.7-9.6-27.1-17.4
		c-11.5-12.1-22.1-25.1-32.8-37.9c-1.7-2-3.1-5-3.1-7.6c-0.2-14.9,0.2-29.8,0.2-44.8c0.1-20.8,0-41.5,0-62.3c0-9-5.2-14.4-14.1-15
		c-6.9-0.5-13.9-0.9-20.6-2.4c-6-1.3-7.7-4.3-7.9-10.4c-0.1-8.7-0.2-17.3-0.2-26c0-8.8,3.3-12.3,12.2-12.8c14-0.8,28.1-1.5,42.1-2.2
		C629.1,744.1,629.9,744,630.8,743.8z"/>
</g>
</svg>
